<svg width="157" height="55" viewBox="0 0 157 55" fill="none" xmlns="http://www.w3.org/2000/svg">
<circle cx="18" cy="29" r="13.5" stroke="#6366F1" stroke-width="5"/>
<circle cx="28" cy="13" r="12" stroke="#81E528" stroke-width="2"/>
<circle cx="47" cy="36" r="12" stroke="#81E528" stroke-width="2"/>
<circle cx="47" cy="18" r="12" stroke="#81E528" stroke-width="2"/>
<circle cx="31" cy="42" r="12" stroke="#81E528" stroke-width="2"/>
<path d="M68.5298 20.5522H70.9907L76.5278 32H74.0889L73.1733 30.0737H66.4863L65.6001 32H63.1538L68.5298 20.5522ZM72.2578 28.1621L69.7822 22.9619L67.3726 28.1621H72.2578ZM78.0146 20.5522H80.3511V32H78.0146V20.5522ZM88.0049 20.5522H90.3413V32H88.0049V20.5522ZM93.293 20.5522H95.6147L102.749 24.2876V20.5522H105.07V32H102.749V26.7485L95.6147 23.0352V32H93.293V20.5522ZM108.308 20.5522H110.629V29.9639H117.287V32H108.308V20.5522ZM119.25 20.5522H121.586V32H119.25V20.5522ZM124.538 20.5522H126.86L133.994 24.2876V20.5522H136.315V32H133.994V26.7485L126.86 23.0352V32H124.538V20.5522ZM139.553 20.5522H141.875V26.4775L147.917 20.5522H150.891L145.251 26.0161L150.891 32H147.8L143.581 27.6348L141.875 29.2827V32H139.553V20.5522Z" fill="#6366F1"/>
</svg>
